<?xml version="1.0" encoding="UTF-8" standalone="no"?>
<svg id="Layer_1" xmlns:rdf="http://www.w3.org/1999/02/22-rdf-syntax-ns#" xmlns="http://www.w3.org/2000/svg" enable-background="new 0 0 558.668 487.673" xml:space="preserve" height="420" viewBox="0 0 419.99998 420" width="420" version="1.1" y="0px" x="0px" xmlns:cc="http://creativecommons.org/ns#" xmlns:dc="http://purl.org/dc/elements/1.1/"><metadata id="metadata3514"><rdf:RDF><cc:Work rdf:about=""><dc:format>image/svg+xml</dc:format><dc:type rdf:resource="http://purl.org/dc/dcmitype/StillImage"/><dc:title/></cc:Work></rdf:RDF></metadata><defs id="defs3512"><clipPath id="clipPath4044" clipPathUnits="userSpaceOnUse"><circle id="circle4046" cy="235.46" cx="222.05" r="140.2" fill="#afe9af"/></clipPath></defs><g id="g4092" transform="matrix(1.3043 0 0 1.3043 -79.618 -97.104)"><g id="g4087"><circle id="path3554" cx="222.05" cy="235.46" r="153.34" fill="#4d4d4d"/><circle id="circle3565" cx="222.05" cy="235.46" r="140.2" fill="#afe9af"/><path id="path4040" opacity=".4" d="m114.38 299.14c56.56 74.156 61.169 77.927 61.169 77.927l89.658 2.5138 43.153-23.462 34.355-37.288-11.947-20.685z" clip-path="url(#clipPath4044)" fill-rule="evenodd" stroke="#000" stroke-width=".76670px"/></g><g id="g4048"><g id="COLORING-9" transform="matrix(-.21048 .0020259 .21346 .12637 215.1 152.24)"><path id="path3780-6" d="m720.9 331.9-9.1-21.2c-8.4-22-44.9-38.6-88.8-38.6-3.3 0-6.5 0.1-9.7 0.3-5.1-24.1-43.4-42.8-90-42.8-3.4 0-6.7 0.1-10 0.3 1.8-3.8 2.8-7.8 2.8-11.9 0-26.7-40.6-48.3-90.6-48.3-5.7 0-16.3-2.3-16.3-3.9 0-26.7-40.6-48.3-90.6-48.3-49.6 0-89.8 21.2-90.5 47.5-40.4 4.8-70.7 24.1-70.7 47.1 0 0.6 0 1.3 0.1 1.9-37.7 5.8-65.3 24.4-65.3 46.4 0 5.7 1.9 11.2 5.3 16.3-42.2 4.1-74.1 23.8-74.1 47.5 0 17.9 18.2 33.5 45.3 41.8-2.3 4.5-3.6 9.3-3.6 14.2 0 26.7 36.5 48.3 81.5 48.3h574.2c50 0 90.6-21.6 90.6-48.3 0.1-26.7-40.5-48.3-90.5-48.3z" stroke="#000" stroke-miterlimit="10" stroke-width="9.3267" fill="#fff"/></g><g id="g3516" transform="matrix(1.1874 0 0 1.1874 -109.63 -80.073)"><path id="path3446" d="m365.7 311.07-0.0879-0.01-3.7734-4.6827-0.018-0.021v-0.004l-20.06-24.895v-18.063l-25.541-58.079-11.774 29.875-6.4795 16.44-19.091-48.438-15.509-39.351-33.643 76.5v-0.00033l-31.534 62.795-0.00033 0.002-10.493 16.125h6.0554l30.141 4.5666h5.2677l13.735-2.3794 10.475 2.3794 14.852-3.6917h14.668 9.9576l19.109 3.6917h12.94 6.4595l7.6232-3.6917h5.0088 23.046l3.9377-1.5311-5.2749-7.5372z" fill="#737477"/><g id="g3448" transform="matrix(.32806 0 0 .32806 187.7 163.84)"><g id="g3450"><polygon id="polygon3452" points="279.78 417.42 320.53 476.42 290.17 476.42 245.46 476.42 263.4 396.01" fill="#7d7f82"/><polygon id="polygon3454" points="364.38 379.18 379.13 376.71 372.72 420.07 371.46 428.58 369.63 441 362.73 476.42 333.56 476.42 320.53 476.42 279.78 417.42 263.4 396.01 287.07 392.07" fill="#737477"/><polygon id="polygon3456" points="379.13 376.71 277.93 119.95 263.41 396.02" fill="#5f6062"/><polygon id="polygon3458" points="277.93 119.95 230.66 0 128.11 233.19" fill="#5f6062"/><polygon id="polygon3460" points="263.41 396.02 277.93 119.95 128.11 233.19" fill="#737477"/><polygon id="polygon3462" points="176.83 424.6 263.4 396.01 245.46 476.42 200.19 487.68" fill="#808285"/><polygon id="polygon3464" points="168.26 480.42 176.83 424.6 200.19 487.68" fill="#5f6062"/><polygon id="polygon3466" points="127.79 413.8 176.82 424.6 176.83 424.6 126.39 487.68 110.34 487.68" fill="#929497"/><g fill="#858789"><polygon id="polygon3468" points="168.26 480.42 126.39 487.68 176.83 424.6"/><polygon id="polygon3470" points="176.83 424.6 263.41 396.02 128.11 233.19"/><polygon id="polygon3472" points="128.11 233.19 176.83 424.6 127.78 413.8 128.11 411.51"/></g><polygon id="polygon3474" points="31.984 424.6 127.79 413.8 110.34 487.68 18.458 473.76" fill="#999b9e"/><polygon id="polygon3476" points="127.78 413.8 31.985 424.6 127.78 305.72" fill="#929497"/><polygon id="polygon3478" points="366.9 427.08 369.63 441 369.93 442.55 369.94 442.61 369.95 442.65 378.77 487.68 320.53 476.42 328.21 464.5" fill="#7d7f82"/><polygon id="polygon3480" points="333.56 468.23 320.53 476.42 290.17 476.42 279.78 417.42 279.05 412.42 366.9 427.08" fill="#757679"/><polygon id="polygon3482" points="279.04 412.42 355.87 217.48 366.9 427.08" fill="#808285"/><polygon id="polygon3484" points="355.87 217.48 391.76 126.42 469.62 303.46" fill="#8d8f92"/><polygon id="polygon3486" points="366.9 427.08 355.87 217.48 469.62 303.46" fill="#929497"/><polygon id="polygon3488" points="366.9 427.08 371.46 428.58 399.26 437.76 399.33 437.79 399.34 437.79 432.62 448.78 418.22 487.68 378.77 487.68 369.95 442.65 369.94 442.61 369.93 442.55 369.63 441" fill="#808285"/><polygon id="polygon3490" points="418.22 487.68 432.62 448.78 437.91 487.68" fill="#757679"/><polygon id="polygon3492" points="469.86 440.58 476.42 476.42 461.15 476.42 432.63 448.78" fill="#5f6062"/><polygon id="polygon3494" points="437.91 487.68 432.62 448.78 461.15 476.42" fill="#5f6062"/><polygon id="polygon3496" points="432.63 448.78 366.9 427.08 469.62 303.46" fill="#858789"/><polygon id="polygon3498" points="469.62 438.84 469.86 440.58 432.63 448.78 469.62 303.46" fill="#5f6062"/><polygon id="polygon3500" points="546.66 476.42 542.59 448.78 558.67 471.76" fill="#5f6062"/><polygon id="polygon3502" points="542.59 448.78 546.66 476.42 476.42 476.42 469.86 440.58" fill="#76777a"/><polygon id="polygon3504" points="469.62 440.58 469.62 358.51 530.76 434.4 530.76 434.41 530.82 434.48 542.35 448.78" fill="#737477"/><polygon id="polygon3506" points="127.78 305.72 31.985 424.6 128.11 233.19 128.11 411.51 127.78 413.8" fill="#858789"/><polygon id="polygon3508" points="18.458 473.76 0 473.76 31.984 424.6" fill="#5f6062"/></g></g></g><g id="COLORING" transform="matrix(.11768 .010378 -.010077 .11427 204.59 119.07)"><path id="path3780" d="m720.9 331.9-9.1-21.2c-8.4-22-44.9-38.6-88.8-38.6-3.3 0-6.5 0.1-9.7 0.3-5.1-24.1-43.4-42.8-90-42.8-3.4 0-6.7 0.1-10 0.3 1.8-3.8 2.8-7.8 2.8-11.9 0-26.7-40.6-48.3-90.6-48.3-5.7 0-16.3-2.3-16.3-3.9 0-26.7-40.6-48.3-90.6-48.3-49.6 0-89.8 21.2-90.5 47.5-40.4 4.8-70.7 24.1-70.7 47.1 0 0.6 0 1.3 0.1 1.9-37.7 5.8-65.3 24.4-65.3 46.4 0 5.7 1.9 11.2 5.3 16.3-42.2 4.1-74.1 23.8-74.1 47.5 0 17.9 18.2 33.5 45.3 41.8-2.3 4.5-3.6 9.3-3.6 14.2 0 26.7 36.5 48.3 81.5 48.3h574.2c50 0 90.6-21.6 90.6-48.3 0.1-26.7-40.5-48.3-90.5-48.3z" stroke="#000" stroke-miterlimit="10" stroke-width="13.173" fill="#fff"/></g></g><text id="text3996" style="word-spacing:0px;letter-spacing:0px" transform="scale(.96705 1.0341)" line-height="125%" xml:space="preserve" font-size="25.969px" y="322.04144" x="147.52927" font-family="Sans" fill="#000000"><tspan id="tspan3998" y="322.04144" x="147.52927">TRAVEL<tspan id="tspan4000" fill="#ffffff">BEST</tspan></tspan></text>
</g></svg>
