<?xml version="1.0" encoding="UTF-8" standalone="no"?>
<!-- Generator: Adobe Illustrator 16.0.0, SVG Export Plug-In . SVG Version: 6.00 Build 0)  -->

<svg
   xmlns:dc="http://purl.org/dc/elements/1.1/"
   xmlns:cc="http://creativecommons.org/ns#"
   xmlns:rdf="http://www.w3.org/1999/02/22-rdf-syntax-ns#"
   xmlns:svg="http://www.w3.org/2000/svg"
   xmlns="http://www.w3.org/2000/svg"
   xmlns:sodipodi="http://sodipodi.sourceforge.net/DTD/sodipodi-0.dtd"
   xmlns:inkscape="http://www.inkscape.org/namespaces/inkscape"
   version="1.1"
   id="Layer_1"
   x="0px"
   y="0px"
   width="420"
   height="420"
   viewBox="0 0 419.99998 420"
   enable-background="new 0 0 558.668 487.673"
   xml:space="preserve"
   inkscape:version="0.91 r"
   sodipodi:docname="travelbest.svg"><metadata
     id="metadata3514"><rdf:RDF><cc:Work
         rdf:about=""><dc:format>image/svg+xml</dc:format><dc:type
           rdf:resource="http://purl.org/dc/dcmitype/StillImage" /><dc:title></dc:title></cc:Work></rdf:RDF></metadata><defs
     id="defs3512"><clipPath
       clipPathUnits="userSpaceOnUse"
       id="clipPath3904"><circle
         r="140.20161"
         style="opacity:1;fill:#afe9af;fill-opacity:1;fill-rule:nonzero;stroke:none;stroke-width:0;stroke-miterlimit:4;stroke-dasharray:none;stroke-dashoffset:0;stroke-opacity:1"
         id="circle3906"
         cx="222.05043"
         cy="235.45724" /></clipPath><clipPath
       clipPathUnits="userSpaceOnUse"
       id="clipPath4044"><circle
         r="140.20161"
         style="opacity:1;fill:#afe9af;fill-opacity:1;fill-rule:nonzero;stroke:none;stroke-width:0;stroke-miterlimit:4;stroke-dasharray:none;stroke-dashoffset:0;stroke-opacity:1"
         id="circle4046"
         cx="222.05043"
         cy="235.45724" /></clipPath></defs><sodipodi:namedview
     pagecolor="#ffffff"
     bordercolor="#666666"
     borderopacity="1"
     objecttolerance="10"
     gridtolerance="10"
     guidetolerance="10"
     inkscape:pageopacity="0"
     inkscape:pageshadow="2"
     inkscape:window-width="1366"
     inkscape:window-height="741"
     id="namedview3510"
     showgrid="false"
     inkscape:zoom="1.1934226"
     inkscape:cx="271.29962"
     inkscape:cy="226.05011"
     inkscape:window-x="0"
     inkscape:window-y="0"
     inkscape:window-maximized="1"
     inkscape:current-layer="Layer_1" /><g
     id="g4092"
     transform="matrix(1.304287,0,0,1.304287,-79.617505,-97.103824)"><g
       id="g4087"><circle
         style="opacity:1;fill:#4d4d4d;fill-opacity:1;fill-rule:nonzero;stroke:none;stroke-width:0;stroke-miterlimit:4;stroke-dasharray:none;stroke-dashoffset:0;stroke-opacity:1"
         id="path3554"
         cx="222.05043"
         cy="235.45724"
         r="153.34048" /><circle
         cy="235.45724"
         cx="222.05043"
         id="circle3565"
         style="opacity:1;fill:#afe9af;fill-opacity:1;fill-rule:nonzero;stroke:none;stroke-width:0;stroke-miterlimit:4;stroke-dasharray:none;stroke-dashoffset:0;stroke-opacity:1"
         r="140.20161" /><path
         style="opacity:0.4;fill:#000000;fill-rule:evenodd;stroke:#000000;stroke-width:0.76670247px;stroke-linecap:butt;stroke-linejoin:miter;stroke-opacity:1"
         d="m 114.37692,299.13963 c 56.56001,74.15646 61.1686,77.92713 61.1686,77.92713 l 89.6581,2.51377 43.15319,-23.46193 34.35497,-37.28771 -11.94684,-20.68486 z"
         id="path4040"
         inkscape:connector-curvature="0"
         clip-path="url(#clipPath4044)" /></g><g
       id="g4048"><g
         id="COLORING-9"
         transform="matrix(-0.21048174,0.00202587,0.21345744,0.12636892,215.1016,152.24332)"><path
           stroke-miterlimit="10"
           d="m 720.9,331.9 -9.1,-21.2 c -8.4,-22 -44.9,-38.6 -88.8,-38.6 -3.3,0 -6.5,0.1 -9.7,0.3 -5.1,-24.1 -43.4,-42.8 -90,-42.8 -3.4,0 -6.7,0.1 -10,0.3 1.8,-3.8 2.8,-7.8 2.8,-11.9 0,-26.7 -40.6,-48.3 -90.6,-48.3 -5.7,0 -16.3,-2.3 -16.3,-3.9 0,-26.7 -40.6,-48.3 -90.6,-48.3 -49.6,0 -89.8,21.2 -90.5,47.5 -40.4,4.8 -70.7,24.1 -70.7,47.1 0,0.6 0,1.3 0.1,1.9 -37.7,5.8 -65.3,24.4 -65.3,46.4 0,5.7 1.9,11.2 5.3,16.3 -42.2,4.1 -74.1,23.8 -74.1,47.5 0,17.9 18.2,33.5 45.3,41.8 -2.3,4.5 -3.6,9.3 -3.6,14.2 0,26.7 36.5,48.3 81.5,48.3 l 574.2,0 c 50,0 90.6,-21.6 90.6,-48.3 0.1,-26.7 -40.5,-48.3 -90.5,-48.3 z"
           id="path3780-6"
           inkscape:connector-curvature="0"
           style="fill:#ffffff;stroke:#000000;stroke-width:9.32668781;stroke-miterlimit:10" /></g><g
         id="g3516"
         transform="matrix(1.1873911,0,0,1.1873911,-109.62832,-80.073091)"><path
           style="fill:#737477"
           inkscape:connector-curvature="0"
           id="path3446"
           d="m 365.69766,311.07111 -0.0879,-0.01 -3.77336,-4.68274 -0.018,-0.021 0,-0.004 -20.05961,-24.89522 0,-18.0627 -25.54118,-58.07858 -11.77377,29.87519 -6.47953,16.44011 -19.09052,-48.43753 -15.50875,-39.3509 -33.64264,76.49953 0,-3.3e-4 -31.53386,62.79478 -3.3e-4,0.002 -10.4927,16.12452 6.05535,0 30.14125,4.56661 5.26767,0 13.73492,-2.37943 10.47531,2.37943 14.85197,-3.69167 14.66826,0 9.95763,0 19.10889,3.69167 12.94036,0 6.45952,0 7.62315,-3.69167 5.00883,0 23.04627,0 3.93772,-1.53106 -5.27489,-7.5372 z" /><g
           transform="matrix(0.32806085,0,0,0.32806085,187.69545,163.84396)"
           id="g3448"><g
             id="g3450"><polygon
               style="fill:#7d7f82"
               id="polygon3452"
               points="279.782,417.422 320.526,476.422 290.174,476.422 245.462,476.422 263.401,396.012 " /><polygon
               style="fill:#737477"
               id="polygon3454"
               points="364.383,379.178 379.132,376.711 372.72,420.071 371.465,428.583 369.626,440.995 362.728,476.422 333.556,476.422 320.526,476.422 279.782,417.422 263.401,396.012 287.071,392.066 " /><polygon
               style="fill:#5f6062"
               id="polygon3456"
               points="379.128,376.713 277.931,119.95 263.407,396.018 " /><polygon
               style="fill:#5f6062"
               id="polygon3458"
               points="277.931,119.95 230.657,0 128.107,233.188 " /><polygon
               style="fill:#737477"
               id="polygon3460"
               points="263.407,396.018 277.931,119.95 128.107,233.188 " /><polygon
               style="fill:#808285"
               id="polygon3462"
               points="176.833,424.604 263.401,396.012 245.462,476.422 200.189,487.675 " /><polygon
               style="fill:#5f6062"
               id="polygon3464"
               points="168.259,480.422 176.833,424.604 200.189,487.675 " /><polygon
               style="fill:#929497"
               id="polygon3466"
               points="127.786,413.801 176.822,424.604 176.833,424.604 126.392,487.675 110.335,487.675 " /><polygon
               style="fill:#858789"
               id="polygon3468"
               points="168.259,480.422 126.392,487.675 176.833,424.604 " /><polygon
               style="fill:#858789"
               id="polygon3470"
               points="176.829,424.602 263.407,396.018 128.107,233.188 " /><polygon
               style="fill:#858789"
               id="polygon3472"
               points="128.107,233.186 176.827,424.598 127.781,413.805 128.107,411.51 " /><polygon
               style="fill:#999b9e"
               id="polygon3474"
               points="31.984,424.604 127.786,413.801 110.335,487.675 18.458,473.755 " /><polygon
               style="fill:#929497"
               id="polygon3476"
               points="127.781,413.805 31.985,424.598 127.781,305.715 " /><polygon
               style="fill:#7d7f82"
               id="polygon3478"
               points="366.901,427.079 369.626,440.995 369.93,442.554 369.94,442.606 369.951,442.649 378.774,487.675 320.526,476.422 328.213,464.505 " /><polygon
               style="fill:#757679"
               id="polygon3480"
               points="333.556,468.228 320.526,476.422 290.174,476.422 279.782,417.422 279.048,412.417 366.901,427.079 " /><polygon
               style="fill:#808285"
               id="polygon3482"
               points="279.044,412.42 355.874,217.485 366.899,427.077 " /><polygon
               style="fill:#8d8f92"
               id="polygon3484"
               points="355.874,217.485 391.763,126.419 469.618,303.455 " /><polygon
               style="fill:#929497"
               id="polygon3486"
               points="366.899,427.077 355.874,217.485 469.618,303.455 " /><polygon
               style="fill:#808285"
               id="polygon3488"
               points="366.901,427.079 371.465,428.583 399.255,437.763 399.329,437.794 399.341,437.794 432.622,448.78 418.22,487.675 378.774,487.675 369.951,442.649 369.94,442.606 369.93,442.554 369.626,440.995 " /><polygon
               style="fill:#757679"
               id="polygon3490"
               points="418.22,487.675 432.622,448.78 437.91,487.675 " /><polygon
               style="fill:#5f6062"
               id="polygon3492"
               points="469.862,440.585 476.415,476.422 461.147,476.422 432.634,448.78 " /><polygon
               style="fill:#5f6062"
               id="polygon3494"
               points="437.91,487.675 432.622,448.78 461.147,476.422 " /><polygon
               style="fill:#858789"
               id="polygon3496"
               points="432.629,448.776 366.899,427.077 469.618,303.455 " /><polygon
               style="fill:#5f6062"
               id="polygon3498"
               points="469.618,438.839 469.864,440.581 432.629,448.776 469.618,303.455 " /><polygon
               style="fill:#5f6062"
               id="polygon3500"
               points="546.665,476.422 542.589,448.78 558.668,471.755 " /><polygon
               style="fill:#76777a"
               id="polygon3502"
               points="542.589,448.78 546.665,476.422 476.415,476.422 469.862,440.585 " /><polygon
               style="fill:#737477"
               id="polygon3504"
               points="469.618,440.585 469.618,358.514 530.765,434.399 530.765,434.411 530.819,434.476 542.346,448.78 " /><polygon
               style="fill:#858789"
               id="polygon3506"
               points="127.781,305.715 31.985,424.598 128.107,233.186 128.107,411.51 127.781,413.805 " /><polygon
               style="fill:#5f6062"
               id="polygon3508"
               points="18.458,473.755 0,473.755 31.984,424.604 " /></g></g></g><g
         id="COLORING"
         transform="matrix(0.11767715,0.01037811,-0.01007719,0.11426505,204.5915,119.07118)"><path
           stroke-miterlimit="10"
           d="m 720.9,331.9 -9.1,-21.2 c -8.4,-22 -44.9,-38.6 -88.8,-38.6 -3.3,0 -6.5,0.1 -9.7,0.3 -5.1,-24.1 -43.4,-42.8 -90,-42.8 -3.4,0 -6.7,0.1 -10,0.3 1.8,-3.8 2.8,-7.8 2.8,-11.9 0,-26.7 -40.6,-48.3 -90.6,-48.3 -5.7,0 -16.3,-2.3 -16.3,-3.9 0,-26.7 -40.6,-48.3 -90.6,-48.3 -49.6,0 -89.8,21.2 -90.5,47.5 -40.4,4.8 -70.7,24.1 -70.7,47.1 0,0.6 0,1.3 0.1,1.9 -37.7,5.8 -65.3,24.4 -65.3,46.4 0,5.7 1.9,11.2 5.3,16.3 -42.2,4.1 -74.1,23.8 -74.1,47.5 0,17.9 18.2,33.5 45.3,41.8 -2.3,4.5 -3.6,9.3 -3.6,14.2 0,26.7 36.5,48.3 81.5,48.3 l 574.2,0 c 50,0 90.6,-21.6 90.6,-48.3 0.1,-26.7 -40.5,-48.3 -90.5,-48.3 z"
           id="path3780"
           inkscape:connector-curvature="0"
           style="fill:#ffffff;stroke:#000000;stroke-width:13.17260551;stroke-miterlimit:10" /></g></g><text
       transform="scale(0.96705345,1.034069)"
       sodipodi:linespacing="125%"
       id="text3996"
       y="322.04144"
       x="147.52927"
       style="font-style:normal;font-weight:normal;font-size:25.969347px;line-height:125%;font-family:Sans;letter-spacing:0px;word-spacing:0px;fill:#000000;fill-opacity:1;stroke:none;stroke-width:1px;stroke-linecap:butt;stroke-linejoin:miter;stroke-opacity:1"
       xml:space="preserve"><tspan
         y="322.04144"
         x="147.52927"
         id="tspan3998"
         sodipodi:role="line">TRAVEL<tspan
   id="tspan4000"
   style="fill:#ffffff">BEST</tspan></tspan></text>
</g></svg>