<?xml version="1.0" encoding="UTF-8" standalone="no"?>
<svg
   xmlns:dc="http://purl.org/dc/elements/1.1/"
   xmlns:cc="http://creativecommons.org/ns#"
   xmlns:rdf="http://www.w3.org/1999/02/22-rdf-syntax-ns#"
   xmlns:svg="http://www.w3.org/2000/svg"
   xmlns="http://www.w3.org/2000/svg"
   version="1.1"
   id="svg2"
   viewBox="0 0 460.00001 439.99998"
   height="440"
   width="460">
  <defs
     id="defs4" />
  <metadata
     id="metadata7">
    <rdf:RDF>
      <cc:Work
         rdf:about="">
        <dc:format>image/svg+xml</dc:format>
        <dc:type
           rdf:resource="http://purl.org/dc/dcmitype/StillImage" />
        <dc:title></dc:title>
      </cc:Work>
    </rdf:RDF>
  </metadata>
  <g
     transform="translate(0,-612.36233)"
     id="layer1">
    <g
       transform="translate(-129.61431,456.80232)"
       id="g3660">
      <g
         id="g3534">
        <path
           d="m 580.28304,245.24095 c -2.698,-3.699 -7.006,-5.888 -11.584,-5.888 l -322.586,0 c -0.625,0 -1.249,0.038 -1.85,0.119 l -13.276,-38.27 c -1.376,-3.958 -4.406,-7.113 -8.3,-8.646 l -66.908,-26.284 c -7.374,-2.887 -15.695,0.735 -18.591,8.1 -2.891,7.369 0.73,15.695 8.1,18.591 l 60.768,23.872 74.381,214.399 c -3.283,1.144 -6.065,3.663 -7.332,7.187 l -21.506,59.739 c -1.318,3.663 -0.775,7.733 1.468,10.916 2.24,3.183 5.883,5.078 9.773,5.078 l 11.044,0 c -6.844,7.616 -11.044,17.646 -11.044,28.675 0,23.718 19.298,43.012 43.012,43.012 23.714,0 43.012,-19.294 43.012,-43.012 0,-11.029 -4.2,-21.059 -11.044,-28.675 l 93.776,0 c -6.847,7.616 -11.048,17.646 -11.048,28.675 0,23.718 19.294,43.012 43.013,43.012 23.718,0 43.012,-19.294 43.012,-43.012 0,-11.029 -4.2,-21.059 -11.043,-28.675 l 13.433,0 c 6.599,0 11.947,-5.349 11.947,-11.948 0,-6.599 -5.349,-11.947 -11.947,-11.947 l -229.123,0 13.319,-36.996 c 1.72,0.724 3.578,1.152 5.523,1.152 l 210.278,0 c 6.234,0 11.751,-4.027 13.65,-9.959 l 59.739,-186.387 c 1.401,-4.364 0.632,-9.129 -2.066,-12.828 z m -274.431,316.704 c -10.543,0 -19.116,-8.573 -19.116,-19.116 0,-10.543 8.573,-19.117 19.116,-19.117 10.543,0 19.116,8.574 19.116,19.117 0,10.543 -8.573,19.116 -19.116,19.116 z m 157.708,0 c -10.543,0 -19.117,-8.573 -19.117,-19.116 0,-10.543 8.574,-19.117 19.117,-19.117 10.542,0 19.116,8.574 19.116,19.117 0,10.543 -8.574,19.116 -19.116,19.116 z m 75.153,-261.658 -73.161,0 0,-32.259 83.499,0 -10.338,32.259 z m -21.067,65.712 -52.094,0 0,-37.038 63.967,0 -11.873,37.038 z m -146.882,0 0,-37.038 66.113,0 0,37.038 -66.113,0 z m 66.113,28.677 0,31.064 -66.113,0 0,-31.064 66.113,0 z m -161.569,-65.715 66.784,0 0,37.038 -53.933,0 -12.851,-37.038 z m 95.456,-28.674 0,-32.259 66.113,0 0,32.259 -66.113,0 z m -28.673,-32.259 0,32.259 -76.734,0 -11.191,-32.259 87.925,0 z m -43.982,126.648 43.982,0 0,31.064 -33.206,0 -10.776,-31.064 z m 167.443,31.065 0,-31.064 42.909,0 -9.955,31.064 -32.954,0 z"
           id="path3420" />
        <g
           id="g3422"
           transform="translate(136.19304,152.13795)" />
        <g
           id="g3424"
           transform="translate(136.19304,152.13795)" />
        <g
           id="g3426"
           transform="translate(136.19304,152.13795)" />
        <g
           id="g3428"
           transform="translate(136.19304,152.13795)" />
        <g
           id="g3430"
           transform="translate(136.19304,152.13795)" />
        <g
           id="g3432"
           transform="translate(136.19304,152.13795)" />
        <g
           id="g3434"
           transform="translate(136.19304,152.13795)" />
        <g
           id="g3436"
           transform="translate(136.19304,152.13795)" />
        <g
           id="g3438"
           transform="translate(136.19304,152.13795)" />
        <g
           id="g3440"
           transform="translate(136.19304,152.13795)" />
        <g
           id="g3442"
           transform="translate(136.19304,152.13795)" />
        <g
           id="g3444"
           transform="translate(136.19304,152.13795)" />
        <g
           id="g3446"
           transform="translate(136.19304,152.13795)" />
        <g
           id="g3448"
           transform="translate(136.19304,152.13795)" />
        <g
           id="g3450"
           transform="translate(136.19304,152.13795)" />
        <rect
           y="255.21935"
           x="241.42857"
           height="47.142857"
           width="310"
           id="rect3524"
           style="opacity:1;fill:#000000;fill-opacity:1;fill-rule:nonzero;stroke:none;stroke-width:0;stroke-miterlimit:4;stroke-dasharray:none;stroke-dashoffset:0;stroke-opacity:1" />
        <rect
           y="320.93362"
           x="267.14285"
           height="51.42857"
           width="267.14285"
           id="rect3530"
           style="opacity:1;fill:#000000;fill-opacity:1;fill-rule:nonzero;stroke:none;stroke-width:0;stroke-miterlimit:4;stroke-dasharray:none;stroke-dashoffset:0;stroke-opacity:1" />
        <rect
           y="386.64792"
           x="290"
           height="42.857143"
           width="227.14285"
           id="rect3532"
           style="opacity:1;fill:#000000;fill-opacity:1;fill-rule:nonzero;stroke:none;stroke-width:0;stroke-miterlimit:4;stroke-dasharray:none;stroke-dashoffset:0;stroke-opacity:1" />
      </g>
      <circle
         style="opacity:1;fill:#f9f9f9;fill-opacity:1;fill-rule:nonzero;stroke:none;stroke-width:0;stroke-miterlimit:4;stroke-dasharray:none;stroke-dashoffset:0;stroke-opacity:1"
         id="path3555"
         cx="358.57144"
         cy="303.7908"
         r="24.285715" />
      <circle
         style="opacity:1;fill:#f9f9f9;fill-opacity:1;fill-rule:nonzero;stroke:none;stroke-width:0;stroke-miterlimit:4;stroke-dasharray:none;stroke-dashoffset:0;stroke-opacity:1"
         id="path3555-9"
         cx="452.85715"
         cy="305.21933"
         r="24.285715" />
      <path
         style="fill:#000000;fill-rule:evenodd;stroke:none;stroke-width:1px;stroke-linecap:butt;stroke-linejoin:miter;stroke-opacity:1"
         d="m 328.57143,418.07649 c 8.9166,-13.11294 20.68521,-24.36608 34.52287,-32.11038 12.42321,-6.9527 26.5327,-11.0523 40.76902,-11.11084 0,0 1e-5,0 1e-5,0 13.66718,-0.0562 27.37417,3.77158 38.83735,11.21405 12.80899,8.31624 22.5254,20.9087 28.72789,34.86431"
         id="path3581" />
      <path
         style="fill:#ffffff;fill-rule:evenodd;stroke:none;stroke-width:1px;stroke-linecap:butt;stroke-linejoin:miter;stroke-opacity:1"
         d="m 352.85714,413.79078 c 0.0185,-7.24106 0.81204,-14.59604 3.56007,-21.29542 1.99191,-4.85602 5.1735,-9.2941 9.47622,-12.29997 4.03618,-2.81964 8.89128,-4.32317 13.78797,-4.83657 0,0 0,0 0,0 5.50175,-0.57683 11.07611,-0.0163 16.49529,1.09478 12.24755,2.511 23.82944,7.67078 34.69491,13.85536 10e-6,0 10e-6,0 10e-6,0 5.17489,2.94553 10.19327,6.16953 14.99079,9.69648 3.96434,2.91444 7.80124,6.0204 11.28046,9.49962"
         id="path3634" />
      <circle
         style="opacity:1;fill:#1a1a1a;fill-opacity:1;fill-rule:nonzero;stroke:none;stroke-width:0;stroke-miterlimit:4;stroke-dasharray:none;stroke-dashoffset:0;stroke-opacity:1"
         id="path3643"
         cx="358.60416"
         cy="303.83917"
         r="9.0913725" />
      <circle
         style="opacity:1;fill:#1a1a1a;fill-opacity:1;fill-rule:nonzero;stroke:none;stroke-width:0;stroke-miterlimit:4;stroke-dasharray:none;stroke-dashoffset:0;stroke-opacity:1"
         id="path3643-6"
         cx="452.54834"
         cy="304.84933"
         r="9.0913725" />
    </g>
  </g>
</svg>
